# xmcd CD database file
#
# Track frame offsets:
#	150
#	18134
#	38833
#	62251
#	86016
#	108581
#	134783
#	163211
#	185210
#	207032
#	227817
#	252645
#	271720
#	293711
#	315523
#
# Disc length: 4530 seconds
#
# Revision: 0
# Processed by: cddbd v1.5.2PL0 Copyright (c) Steve Scherf et al.
# Submitted via: CDex 1.51
#
DISCID=d611b00f
DTITLE=Jazz Family - At The Jazzbandball
DYEAR=2006
DGENRE=Jazz
TTITLE0=Way Down Younder In New Orleans
TTITLE1=Yellow Dog Blues
TTITLE2=It's tight like that
TTITLE3=Creole love call
TTITLE4=Canal Street Blues
TTITLE5=Jazz me Blues
TTITLE6=Jada
TTITLE7=At the Jazzbandball
TTITLE8=Farewell Blues
TTITLE9=Jazzin' Babies Blues
TTITLE10=Blues my naughty
TTITLE11=Stumblin'
TTITLE12=Corinne Corinna
TTITLE13=Royal Garden Blues
TTITLE14=Sweet Georgia Brown
EXTD=YEAR: 2006
EXTT0=
EXTT1=
EXTT2=
EXTT3=
EXTT4=
EXTT5=
EXTT6=
EXTT7=
EXTT8=
EXTT9=
EXTT10=
EXTT11=
EXTT12=
EXTT13=
EXTT14=
PLAYORDER=
